HIERARCHY
ROOT Hips
{
     OFFSET -35.29530 98.29530 -3.61388
     CHANNELS 6 Xposition Yposition Zposition Zrotation Xrotation Yrotation
     JOINT Spine
     {
          OFFSET -0.00000 11.89050 0.00000
          CHANNELS 3 Zrotation Xrotation Yrotation
          JOINT Spine1
          {
               OFFSET 0.00000 25.65740 0.12766
               CHANNELS 3 Zrotation Xrotation Yrotation
               JOINT HEad
               {
                    OFFSET 0.00000 8.73416 0.01134
                    CHANNELS 3 Zrotation Xrotation Yrotation
                    End Site
                    {
                         OFFSET -0.29000 12.77420 2.51395
                    }
               }
               JOINT LeftShoulder1
               {
                    OFFSET 8.99000 -0.36225 -0.22000
                    CHANNELS 3 Zrotation Xrotation Yrotation
                    JOINT LeftArm
                    {
                         OFFSET 10.28270 -0.00338 0.32212
                         CHANNELS 3 Zrotation Xrotation Yrotation
                         JOINT LeftForeArm
                         {
                              OFFSET 32.76690 0.09914 -1.42434
                              CHANNELS 3 Zrotation Xrotation Yrotation
                              JOINT LeftHand
                              {
                                   OFFSET 27.56430 0.08536 1.02216
                                   CHANNELS 3 Zrotation Xrotation Yrotation
                                   End Site
                                   {
                                        OFFSET 16.74430 -0.60000 1.50291
                                   }
                              }
                         }
                    }
               }
               JOINT RightShoulder
               {
                    OFFSET -8.99000 -0.36225 -0.22000
                    CHANNELS 3 Zrotation Xrotation Yrotation
                    JOINT RightArm
                    {
                         OFFSET -10.28270 -0.00338 0.32212
                         CHANNELS 3 Zrotation Xrotation Yrotation
                         JOINT RightForeArm
                         {
                              OFFSET -32.89710 0.09914 -1.42434
                              CHANNELS 3 Zrotation Xrotation Yrotation
                              JOINT RightHand
                              {
                                   OFFSET -27.49210 0.08536 1.02216
                                   CHANNELS 3 Zrotation Xrotation Yrotation
                                   End Site
                                   {
                                        OFFSET -16.63120 -0.60000 1.50291
                                   }
                              }
                         }
                    }
               }
          }
     }
     JOINT LeftUpLeg
     {
          OFFSET 8.94580 -8.66707 0.10165
          CHANNELS 3 Zrotation Xrotation Yrotation
          JOINT LeftLeg
          {
               OFFSET -0.00000 -44.42270 1.37270
               CHANNELS 3 Zrotation Xrotation Yrotation
               JOINT LeftFoot
               {
                    OFFSET -0.25355 -42.09240 -1.46059
                    CHANNELS 3 Zrotation Xrotation Yrotation
                    JOINT LeftToes
                    {
                         OFFSET -0.04000 -4.41509 8.49910
                         CHANNELS 3 Zrotation Xrotation Yrotation
                         End Site
                         {
                              OFFSET 0.08000 -0.04745 9.77979
                         }
                    }
               }
          }
     }
     JOINT RightUpLeg
     {
          OFFSET -8.94580 -8.66707 0.10165
          CHANNELS 3 Zrotation Xrotation Yrotation
          JOINT RightLeg
          {
               OFFSET 0.00000 -44.42270 1.37270
               CHANNELS 3 Zrotation Xrotation Yrotation
               JOINT RightFoot
               {
                    OFFSET 0.25355 -42.09240 -1.46059
                    CHANNELS 3 Zrotation Xrotation Yrotation
                    JOINT RightToes
                    {
                         OFFSET 0.04000 -4.41509 8.49910
                         CHANNELS 3 Zrotation Xrotation Yrotation
                         End Site
                         {
                              OFFSET -0.08000 -0.13745 9.77979
                         }
                    }
               }
          }
     }
}
MOTION
Frames: 15
Frame Time: 0.01667
-35.29530 98.29530 -3.61388 -2.04267 -0.41599 -41.42940 3.50593 3.11057 1.69254 8.08085 6.17290 2.72029 -5.27091 -10.15470 15.52960 -0.00000 -0.00000 0.00000 -145.95200 -30.29760 -118.66200 3.65738 59.74120 -110.97000 35.05690 4.99106 -11.59570 -0.00711 0.59766 8.73033 98.45180 5.67807 81.96810 3.63155 36.37850 96.02760 -18.17130 10.25690 -6.68213 11.03670 -10.60860 -18.25850 -1.13028 13.11330 26.43410 -25.98610 2.34373 2.27385 9.37873 -7.92226 -58.64270 -11.26130 9.21073 -18.01390 -0.72804 17.30730 3.00191 20.60570 -6.59357 -0.35978 1.41946 -16.32640 36.94860 
-35.37700 98.29040 -3.65340 -2.08446 -0.47889 -41.31220 3.58772 3.08377 1.64736 8.18015 6.12112 2.63474 -5.26437 -10.05810 15.62870 -0.00000 -0.00000 0.00000 -145.85899 -30.50700 -118.56600 3.73069 59.65910 -111.06700 35.00980 5.01637 -11.53790 0.04145 0.61091 8.92865 98.43430 5.56047 81.93590 3.56719 36.29890 96.07090 -18.11520 10.26610 -6.75076 11.10610 -10.48040 -18.38640 -1.19447 12.96680 26.39400 -25.90990 2.29856 2.25684 9.38221 -7.85455 -58.52230 -11.20900 9.27455 -18.04740 -0.73548 17.43850 3.00387 20.44240 -6.71767 -0.33652 1.42462 -16.33850 36.79500 
-35.45630 98.29060 -3.66834 -2.11414 -0.55999 -41.21320 3.68057 3.05382 1.60015 8.25522 6.06708 2.55139 -5.44258 -9.94059 15.66170 -0.00000 -0.00000 0.00000 -145.75900 -30.76720 -118.50300 3.76031 59.54580 -111.12700 34.92490 5.04443 -11.48950 0.08107 0.62634 9.19099 98.39240 5.41309 81.94120 3.89077 36.26750 95.86110 -18.22140 10.26390 -6.72115 11.14400 -10.33050 -18.51020 -1.26186 12.81430 26.37720 -25.80400 2.28575 2.24436 9.36822 -7.85139 -58.41540 -11.18150 9.34166 -18.09890 -0.77344 17.57710 3.03317 20.24850 -6.82159 -0.31689 1.44990 -16.39690 36.64470 
-35.53200 98.29470 -3.66223 -2.13342 -0.66164 -41.13990 3.77083 3.02640 1.55995 8.30186 6.02048 2.48551 -5.74083 -9.86985 15.66870 -0.00000 -0.00000 0.00000 -145.65601 -31.04690 -118.47500 3.74333 59.42190 -111.13600 34.83050 5.06764 -11.46100 0.10601 0.64102 9.46474 98.34470 5.26515 81.97130 4.45230 36.28680 95.48950 -18.43480 10.25170 -6.61247 11.15060 -10.15630 -18.62730 -1.32832 12.65900 26.39180 -25.68630 2.31121 2.23925 9.33981 -7.90689 -58.33000 -11.18440 9.41307 -18.13460 -0.82963 17.72440 3.05837 20.07300 -6.91700 -0.29920 1.47726 -16.46020 36.53250 
-35.60260 98.30010 -3.64110 -2.15019 -0.78618 -41.08900 3.84354 3.00896 1.53485 8.32269 5.99351 2.44876 -6.05673 -9.90750 15.70020 -0.00000 -0.00000 0.00000 -145.55901 -31.30520 -118.46900 3.68614 59.31400 -111.09600 34.75390 5.08210 -11.45180 0.11365 0.65188 9.68960 98.29970 5.14999 82.01060 5.02005 36.33960 95.09820 -18.66930 10.23420 -6.46917 11.13150 -9.96147 -18.74770 -1.39708 12.51540 26.44590 -25.57800 2.36281 2.24068 9.30566 -7.99638 -58.27500 -11.22090 9.49929 -18.11040 -0.87566 17.87770 3.03173 19.96360 -7.02529 -0.28000 1.48151 -16.47030 36.48250 
-35.66670 98.30380 -3.61156 -2.17375 -0.93315 -41.04660 3.88897 3.00660 1.52837 8.32518 5.99384 2.44422 -6.30189 -10.07730 15.79000 -0.00000 -0.00000 0.00000 -145.48000 -31.50770 -118.46800 3.59211 59.24360 -111.00800 34.70540 5.08778 -11.45700 0.10773 0.65721 9.82174 98.25000 5.09303 82.04430 5.37054 36.39640 94.82870 -18.84240 10.21810 -6.34610 11.09440 -9.75519 -18.88200 -1.47169 12.39910 26.53710 -25.49230 2.42166 2.24567 9.27475 -8.09282 -58.25820 -11.28980 9.61380 -17.99360 -0.87801 18.03040 2.90785 19.94670 -7.16095 -0.25679 1.44389 -16.38350 36.50310 
-35.72350 98.30450 -3.57878 -2.20957 -1.09743 -40.99570 3.90619 3.01924 1.53885 8.31757 6.02025 2.46705 -6.44178 -10.34810 15.93750 -0.00000 -0.00000 0.00000 -145.42500 -31.63850 -118.45400 3.47086 59.21630 -110.88100 34.67450 5.08738 -11.47340 0.09801 0.65738 9.84759 98.17990 5.10293 82.06000 5.39623 36.42870 94.75860 -18.90860 10.20940 -6.28302 11.04520 -9.54976 -19.02680 -1.54832 12.32000 26.64560 -25.43060 2.47452 2.25150 9.25230 -8.18073 -58.28460 -11.38530 9.76417 -17.78230 -0.81451 18.17320 2.66532 20.01760 -7.31763 -0.23030 1.36347 -16.19820 36.59040 
-35.77300 98.30280 -3.54545 -2.25603 -1.26987 -40.92290 3.90128 3.04190 1.56186 8.30456 6.06336 2.50950 -6.50153 -10.64250 16.10810 -0.00000 -0.00000 0.00000 -145.39400 -31.70140 -118.41300 3.36073 59.22040 -110.75000 34.63980 5.08571 -11.49560 0.09649 0.65421 9.78028 98.07860 5.17026 82.05010 5.14864 36.41920 94.87400 -18.87170 10.20970 -6.28900 10.98430 -9.35817 -19.15750 -1.61309 12.27940 26.73530 -25.38650 2.51999 2.25730 9.23898 -8.25826 -58.35600 -11.49740 9.94638 -17.50800 -0.68562 18.29720 2.31649 20.14450 -7.46687 -0.20498 1.25997 -15.96090 36.73450 
-35.81690 98.30040 -3.51214 -2.30530 -1.43966 -40.82220 3.88268 3.06744 1.59323 8.28614 6.11053 2.56596 -6.53865 -10.86980 16.24880 -0.00000 -0.00000 0.00000 -145.38200 -31.71180 -118.33600 3.33332 59.23360 -110.67900 34.58680 5.08928 -11.51010 0.11070 0.64961 9.64573 97.94950 5.27338 82.01280 4.77797 36.36530 95.10230 -18.76920 10.21750 -6.35042 10.90810 -9.19219 -19.23520 -1.64658 12.27380 26.76330 -25.35260 2.56581 2.26408 9.23271 -8.33142 -58.47070 -11.61460 10.14620 -17.22110 -0.51297 18.39740 1.89865 20.28130 -7.56895 -0.18749 1.16718 -15.75010 36.92400 
-35.85790 98.29890 -3.47838 -2.34793 -1.59680 -40.69470 3.85717 3.09045 1.63074 8.26024 6.15262 2.63459 -6.60482 -10.96790 16.31340 -0.00000 -0.00000 0.00000 -145.37801 -31.68550 -118.22100 3.45527 59.23820 -110.73500 34.51660 5.10383 -11.49730 0.13708 0.64423 9.46798 97.81100 5.38948 81.95330 4.42773 36.27530 95.36980 -18.64610 10.23080 -6.45004 10.81330 -9.06091 -19.22540 -1.63358 12.29860 26.69760 -25.32300 2.62126 2.27333 9.23057 -8.40746 -58.62370 -11.72530 10.34580 -16.96550 -0.32663 18.47290 1.45388 20.38530 -7.59030 -0.18385 1.11915 -15.64350 37.14660 
-35.89860 98.29890 -3.44368 -2.37792 -1.73337 -40.54740 3.82842 3.10955 1.67395 8.22643 6.18777 2.71568 -6.72074 -10.93000 16.28270 -0.00000 -0.00000 0.00000 -145.37601 -31.63360 -118.07100 3.73219 59.23240 -110.93800 34.44430 5.13043 -11.44650 0.15979 0.63715 9.26218 97.69020 5.50455 81.88300 4.16920 36.16220 95.63570 -18.53610 10.24820 -6.57659 10.70220 -8.96935 -19.11490 -1.57149 12.35000 26.53170 -25.29260 2.69046 2.28546 9.22983 -8.49175 -58.80730 -11.82080 10.53040 -16.75860 -0.14922 18.52660 1.01072 20.43320 -7.51804 -0.19653 1.13509 -15.68310 37.38800 
-35.94030 98.30040 -3.40779 -2.39503 -1.84385 -40.39190 3.79806 3.12696 1.72267 8.18771 6.22057 2.80858 -6.87168 -10.80190 16.17080 -0.00000 -0.00000 0.00000 -145.37500 -31.56330 -117.90000 4.06885 59.23440 -111.22200 34.38820 5.16244 -11.36990 0.15944 0.62685 9.03555 97.61080 5.61821 81.81790 4.00038 36.04100 95.88820 -18.45510 10.26880 -6.72104 10.58410 -8.91717 -18.91880 -1.47191 12.42410 26.28870 -25.25790 2.76942 2.29924 9.22879 -8.58484 -59.01080 -11.89730 10.69060 -16.58680 0.01253 18.56420 0.58039 20.42840 -7.36637 -0.22305 1.20945 -15.85370 37.62970 
-35.98180 98.30370 -3.37033 -2.40305 -1.92504 -40.24190 3.76758 3.14561 1.77541 8.14845 6.25666 2.90971 -7.01776 -10.65540 16.01540 -0.00000 -0.00000 0.00000 -145.37700 -31.48300 -117.72800 4.27343 59.27790 -111.43200 34.36260 5.18510 -11.30870 0.12810 0.61279 8.78934 97.57950 5.74316 81.77440 3.88144 35.92880 96.12170 -18.40500 10.29050 -6.86966 10.47240 -8.89860 -18.67430 -1.35545 12.51310 26.01170 -25.21840 2.84789 2.31241 9.22737 -8.68050 -59.22010 -11.95680 10.82060 -16.42040 0.16425 18.59490 0.16792 20.39820 -7.17212 -0.25688 1.31334 -16.08790 37.84680 
-36.01970 98.30930 -3.33045 -2.40637 -1.97602 -40.10860 3.73916 3.16627 1.82871 8.11020 6.29755 3.01237 -7.10727 -10.55890 15.85840 -0.00000 -0.00000 0.00000 -145.37601 -31.40230 -117.57100 4.10630 59.39910 -111.36200 34.37590 5.17863 -11.32330 0.08430 0.59662 8.51790 97.57600 5.90142 81.76490 3.77193 35.84470 96.32000 -18.38040 10.31030 -7.00292 10.37830 -8.90425 -18.42540 -1.24251 12.60470 25.74430 -25.17720 2.91434 2.32277 9.22674 -8.76756 -59.41790 -12.00490 10.91530 -16.23550 0.31289 18.63100 -0.21228 20.37790 -6.98156 -0.29000 1.40737 -16.29770 38.00550 
-36.05030 98.31800 -3.28690 -2.40793 -1.99773 -39.99620 3.71521 3.18653 1.87738 8.06970 6.33864 3.10759 -7.08814 -10.55680 15.72910 -0.00000 -0.00000 0.00000 -145.34900 -31.32870 -117.43000 3.36733 59.61450 -110.83600 34.43050 5.12480 -11.47150 0.07151 0.58173 8.20901 97.55600 6.11737 81.79330 3.65327 35.80610 96.45510 -18.37740 10.32530 -7.10176 10.30720 -8.92454 -18.20640 -1.14585 12.68530 25.51320 -25.13880 2.96104 2.32910 9.22788 -8.83573 -59.58690 -12.04580 10.97000 -16.03140 0.45577 18.68520 -0.52899 20.39520 -6.83340 -0.31594 1.45941 -16.41310 38.06910 
